<svg width="512" height="512" viewBox="0 0 512 512" fill="none" xmlns="http://www.w3.org/2000/svg">
  <!-- 背景圆形 -->
  <circle cx="256" cy="256" r="256" fill="#4F46E5"/>
  
  <!-- 工具箱背景 -->
  <rect x="120" y="180" width="272" height="180" rx="12" fill="white"/>
  <rect x="120" y="180" width="272" height="40" rx="12" fill="#E5E7EB"/>
  
  <!-- 工具箱把手 -->
  <rect x="230" y="160" width="52" height="20" rx="6" fill="#9CA3AF"/>
  <rect x="235" y="165" width="42" height="10" rx="3" fill="#6B7280"/>
  
  <!-- 计算器 -->
  <rect x="140" y="240" width="60" height="70" rx="6" fill="#3B82F6"/>
  <rect x="145" y="245" width="50" height="20" rx="2" fill="white"/>
  <!-- 计算器按键 -->
  <circle cx="155" cy="275" r="5" fill="white"/>
  <circle cx="170" cy="275" r="5" fill="white"/>
  <circle cx="185" cy="275" r="5" fill="white"/>
  <circle cx="155" cy="290" r="5" fill="white"/>
  <circle cx="170" cy="290" r="5" fill="white"/>
  <circle cx="185" cy="290" r="5" fill="white"/>
  
  <!-- 时钟 -->
  <circle cx="256" cy="280" r="35" fill="#10B981"/>
  <circle cx="256" cy="280" r="30" fill="white"/>
  <circle cx="256" cy="280" r="3" fill="#10B981"/>
  <!-- 时钟指针 -->
  <line x1="256" y1="280" x2="256" y2="260" stroke="#10B981" stroke-width="3" stroke-linecap="round"/>
  <line x1="256" y1="280" x2="270" y2="280" stroke="#10B981" stroke-width="2" stroke-linecap="round"/>
  
  <!-- 工具/扳手 -->
  <rect x="320" y="240" width="55" height="70" rx="6" fill="#F59E0B"/>
  <g transform="translate(347, 275)">
    <!-- 扳手形状 -->
    <path d="M-15 -20 L-15 -10 L-10 -5 L10 -5 L15 0 L15 10 L10 15 L-10 15 L-15 10 L-15 -20Z" fill="white"/>
    <circle cx="5" cy="5" r="8" fill="none" stroke="white" stroke-width="3"/>
  </g>
  
  <!-- 顶部装饰图标 -->
  <!-- 齿轮 -->
  <g transform="translate(200, 120)">
    <circle cx="0" cy="0" r="20" fill="white" fill-opacity="0.9"/>
    <circle cx="0" cy="0" r="12" fill="none" stroke="#4F46E5" stroke-width="3"/>
    <circle cx="0" cy="0" r="6" fill="#4F46E5"/>
    <!-- 齿轮齿 -->
    <rect x="-2" y="-25" width="4" height="10" fill="white" fill-opacity="0.9"/>
    <rect x="-2" y="15" width="4" height="10" fill="white" fill-opacity="0.9"/>
    <rect x="-25" y="-2" width="10" height="4" fill="white" fill-opacity="0.9"/>
    <rect x="15" y="-2" width="10" height="4" fill="white" fill-opacity="0.9"/>
  </g>
  
  <!-- 设置图标 -->
  <g transform="translate(320, 120)">
    <circle cx="0" cy="0" r="18" fill="white" fill-opacity="0.9"/>
    <path d="M-8 -8 L8 8 M8 -8 L-8 8" stroke="#4F46E5" stroke-width="3" stroke-linecap="round"/>
    <circle cx="0" cy="0" r="5" fill="none" stroke="#4F46E5" stroke-width="2"/>
  </g>
</svg> 