<svg xmlns="http://www.w3.org/2000/svg" width="112" height="112" viewBox="0 0 112 112" fill="none">
  <path d="M18 82V51.5C18 44.7 21.4 38.3 27 34.4L50 18.2C55.9 14.1 63.8 14.1 69.7 18.3L96 36.9" stroke="#8AA274" stroke-width="12" stroke-linecap="round" stroke-linejoin="round"/>
  <path d="M35 59.5C35 53.9 37.7 48.7 42.3 45.5L56.2 35.9C61 32.6 67.3 32.6 72 35.9L85.8 45.7C90.3 48.9 93 54.1 93 59.6V79.2C93 88.1 85.8 95.3 76.9 95.3H51.1C42.2 95.3 35 88.1 35 79.2V59.5Z" fill="#C98B74"/>
  <path d="M66.2 75.9C65 77 63.1 77 61.9 75.9L52.3 66.9C47.2 62.1 50.5 53.5 57.5 53.5C60.2 53.5 62.7 54.9 64 57.2C65.4 54.9 67.9 53.5 70.6 53.5C77.6 53.5 80.9 62.1 75.8 66.9L66.2 75.9Z" fill="white"/>
</svg>
